# AST/ASF file generated using VICON BodyLanguage
# -----------------------------------------------
:version 1.10
:name VICON
:units
  mass 1.0
  length 0.45
  angle deg
:documentation
   .ast/.asf automatically generated from VICON data using
   VICON BodyBuilder and BodyLanguage model FoxedUp or BRILLIANT.MOD
:root
   order TX TY TZ RX RY RZ
   axis XYZ
   position 0 0 0  
   orientation 0 0 0 
:bonedata
  begin
     id 1 
     name lhipjoint
     direction 0.606768 -0.715223 0.346827 
     length 2.41543 
     axis 0 0 0  XYZ
  end
  begin
     id 2 
     name lfemur
     direction 0.34202 -0.939693 0  
     length 7.2778  
     axis 0 0 20  XYZ
    dof rx ry rz
    limits (-160.0 20.0)
           (-70.0 70.0)
           (-60.0 70.0)
  end
  begin
     id 3 
     name ltibia
     direction 0.34202 -0.939693 0   
     length 7.61811   
     axis 0 0 20   XYZ
    dof rx
    limits (-10.0 170.0)
  end
  begin
     id 4 
     name lfoot
     direction 0.0823924 -0.226371 0.97055   
     length 2.33618   
     axis -90 7.62852e-016 20   XYZ
    dof rx rz
    limits (-45.0 90.0)
           (-70.0 20.0)
  end
  begin
     id 5 
     name ltoes
     direction 1.53554e-011 -4.21934e-011 1   
     length 1.17015   
     axis -90 7.62852e-016 20   XYZ
    dof rx
    limits (-90.0 20.0)
  end
  begin
     id 6 
     name rhipjoint
     direction -0.6077 -0.714582 0.346516   
     length 2.4176  
     axis 0 0 0  XYZ 
  end
  begin
     id 7 
     name rfemur
     direction -0.34202 -0.939693 0   
     length 7.28127   
     axis 0 0 -20   XYZ
    dof rx ry rz
    limits (-160.0 20.0)
           (-70.0 70.0)
           (-70.0 60.0)
  end
  begin
     id 8 
     name rtibia
     direction -0.34202 -0.939693 0   
     length 7.77648   
     axis 0 0 -20   XYZ
    dof rx
    limits (-10.0 170.0)
 end
 begin
     id 9 
     name rfoot
     direction -0.0809463 -0.222398 0.97159   
     length 2.37533  
     axis -90 -7.62852e-016 -20   XYZ
    dof rx rz
    limits (-45.0 90.0)
           (-20.0 70.0)
  end
  begin
     id 10 
     name rtoes
     direction -1.53568e-011 -4.21714e-011 1   
     length 1.18972   
     axis -90 -7.62852e-016 -20   XYZ
    dof rx
    limits (-90.0 20.0)
  end
  begin
     id 11 
     name lowerback
     direction 0.010968 0.991932 -0.126297   
     length 2.21698   
     axis 0 0 0   XYZ
    dof rx ry rz
    limits (-20.0 45.0)
           (-30.0 30.0)
           (-30.0 30.0)
  end
  begin
     id 12 
     name upperback
     direction 0.0167007 0.997503 -0.0686276   
     length 2.22371   
     axis 0 0 0   XYZ
    dof rx ry rz
    limits (-20.0 45.0)
           (-30.0 30.0)
           (-30.0 30.0)
  end
  begin
     id 13 
     name thorax
     direction 0.0111721 0.999885 -0.0102878   
     length 2.25242   
     axis 0 0 0   XYZ
    dof rx ry rz
    limits (-20.0 45.0)
           (-30.0 30.0)
           (-30.0 30.0)
  end
  begin
     id 14 
     name lowerneck
     direction -0.0120265 0.990428 0.137508   
     length 1.57674   
     axis 0 0 0   XYZ
    dof rx ry rz
    limits (-20.0 45.0)
           (-30.0 30.0)
           (-30.0 30.0)
  end
  begin
     id 15 
     name upperneck
     direction 0.0175669 0.998907 0.0433089   
     length 1.5618   
     axis 0 0 0   XYZ
    dof rx ry rz
    limits (-20.0 45.0)
           (-30.0 30.0)
           (-30.0 30.0)
  end
  begin
     id 16
     name head
     direction 0.00754609 0.99997 0.00185367  
     length 1.60579  
     axis 0 0 0   XYZ
    dof rx ry rz
    limits (-20.0 45.0)
           (-30.0 30.0)
           (-30.0 30.0)
  end
  begin
     id 17 
     name lclavicle
     direction 0.885866 0.429166 -0.176231  
     length 3.44967  
     axis 0 0 0   XYZ
    dof ry rz
    limits (-20.0 10.0)
           (0.0 20.0)
  end
  begin
     id 18 
     name lhumerus
     direction 1 -4.48973e-011 -1.90255e-027   
     length 5.20607   
     axis 180 -30 -90   XYZ
    dof rx ry rz
    limits (-60.0 90.0)
           (-90.0 90.0)
           (-90.0 90.0)
  end
  begin
     id 19
     name lradius
     direction 1 -4.48956e-011 9.87925e-027   
     length 3.39961   
     axis 180 -30 -90   XYZ
    dof rx
    limits (-10.0 170.0)
  end
  begin
     id 20
     name lwrist
     direction 1 -4.48985e-011 1.73247e-026   
     length 1.6998   
     axis -9.60847e-015 90 90   XYZ
    dof ry
    limits (-180.0 0.0)
 end
  begin
     id 21 
     name lhand
     direction 1 -4.48798e-011 3.46119e-026   
     length 0.519693   
     axis -2.21073e-014 90 90   XYZ
    dof rx rz
    limits (-90.0 90.0)
           (-45.0 45.0)
  end
  begin
     id 22 
     name lfingers
     direction 1 -4.48938e-011 6.92797e-026   
     length 0.41899   
     axis -4.42155e-014 90 90   XYZ
    dof rx
    limits (0.0 90.0)
  end
  begin
     id 23
     name lthumb
     direction 0.707107 -6.34952e-011 0.707107   
     length 0.601588   
     axis -90 45 6.0103e-014   XYZ
    dof rx rz
    limits (-45.0 45.0)
           (-45.0 45.0)
  end
  begin
     id 24 
     name rclavicle
     direction -0.866736 0.456792 -0.200276   
     length 3.45032  
     axis 0 0 0   XYZ 
    dof ry rz
    limits (-10.0 20.0)
           (-20.0 0.0)
  end
  begin
     id 25 
     name rhumerus
     direction -1 -4.4897e-011 8.65094e-028  
     length 5.32214   
     axis 180 30 90   XYZ
    dof rx ry rz
    limits (-90.0 60.0)
           (-90.0 90.0)
           (-90.0 90.0)
  end
  begin
     id 26 
     name rradius
     direction -1 -4.48987e-011 1.08427e-026   
     length 3.51208   
     axis 180 30 90   XYZ
    dof rx
    limits (-10.0 170.0)
  end
  begin
     id 27 
     name rwrist
     direction -1 -4.48961e-011 1.73222e-026   
     length 1.75604   
     axis -9.60847e-015 -90 -90   XYZ
    dof ry
    limits (-180.0 0.0)
  end
  begin
     id 28
     name rhand
     direction -1 -4.48895e-011 3.46314e-026   
     length 0.586681   
     axis -2.21073e-014 -90 -90   XYZ
    dof rx rz
    limits (-90.0 90.0)
           (-45.0 45.0)
  end
  begin
     id 29
     name rfingers
     direction -1 -4.48968e-011 6.92916e-026   
     length 0.472997   
     axis -4.42155e-014 -90 -90   XYZ
    dof rx
    limits (0.0 90.0)
  end
  begin
     id 30
     name rthumb
     direction -0.707107 -6.34848e-011 0.707107   
     length 0.679133   
     axis -90 -45 -6.0103e-014   XYZ
    dof rx rz
    limits (-45.0 45.0)
           (-45.0 45.0)
  end
:hierarchy
  begin
    root lhipjoint rhipjoint lowerback
    lhipjoint lfemur
    lfemur ltibia
    ltibia lfoot
    lfoot ltoes
    rhipjoint rfemur
    rfemur rtibia
    rtibia rfoot
    rfoot rtoes
    lowerback upperback
    upperback thorax
    thorax lowerneck lclavicle rclavicle
    lowerneck upperneck
    upperneck head
    lclavicle lhumerus
    lhumerus lradius
    lradius lwrist
    lwrist lhand lthumb
    lhand lfingers
    rclavicle rhumerus
    rhumerus rradius
    rradius rwrist
    rwrist rhand rthumb
    rhand rfingers
  end

#!OML:ASF H:\Dans Jumps\Project 1\Capture day 1\Session 1\subject.ASF
:FULLY-SPECIFIED
:DEGREES
24
root 0.539185 17.6118 -13.5144 7.34047 -0.689332 -1.03301
lowerback -4.07422 -0.533219 -0.3454
upperback 1.40697 -0.750963 1.62899
thorax 3.76185 -0.402045 1.81909
lowerneck -13.1027 0.484503 -1.54979
upperneck 13.6087 0.955769 0.0509605
head 6.28064 0.385478 0.357006
rclavicle -6.31141e-015 9.14409e-015
rhumerus -28.4943 -20.9569 -77.1154
rradius 22.3236
rwrist 35.3791
rhand -19.5025 -26.865
rfingers 7.12502
rthumb 6.82008 -56.7351
lclavicle -6.31141e-015 9.14409e-015
lhumerus -23.7279 7.67754 85.9825
lradius 14.1282
lwrist -2.30457
lhand -25.8237 -4.96116
lfingers 7.12502
lthumb 0.715994 25.0174
rfemur -10.6996 -3.41233 20.2627
rtibia 19.0043
rfoot -14.4986 -3.65994
rtoes 13.8735
lfemur -9.73825 8.24304 -19.3876
ltibia 16.5066
lfoot -11.9352 3.64931
ltoes -0.194232
25
root 0.538175 17.6128 -13.512 7.34788 -0.710242 -1.01638
lowerback -4.08231 -0.527121 -0.356807
upperback 1.4036 -0.741795 1.61812
thorax 3.7626 -0.397601 1.81489
lowerneck -13.0875 0.484755 -1.55248
upperneck 13.5746 0.956303 0.0499076
head 6.26716 0.385769 0.356981
rclavicle 1.16289e-014 -7.95139e-015
rhumerus -28.4966 -20.9737 -77.1041
rradius 22.319
rwrist 35.4099
rhand -19.4977 -26.8673
rfingers 7.12502
rthumb 6.82472 -56.7373
lclavicle 1.16289e-014 -7.95139e-015
lhumerus -23.7137 7.66148 85.9873
lradius 14.1344
lwrist -2.27847
lhand -25.8418 -4.98328
lfingers 7.12502
lthumb 0.698532 24.9953
rfemur -10.6882 -3.38522 20.2477
rtibia 18.9818
rfoot -14.498 -3.67911
rtoes 13.8637
lfemur -9.75929 8.30928 -19.4191
ltibia 16.5422
lfoot -11.9081 3.68499
ltoes -0.146562
26
root 0.537144 17.6138 -13.5099 7.35636 -0.731984 -0.997599
lowerback -4.08885 -0.521227 -0.370374
upperback 1.39892 -0.732735 1.60671
thorax 3.76115 -0.393238 1.81135
lowerneck -13.0709 0.48364 -1.55831
upperneck 13.5398 0.955013 0.0523425
head 6.25324 0.385307 0.358407
rclavicle -8.00108e-015 5.96354e-015
rhumerus -28.4998 -20.9909 -77.0947
rradius 22.3169
rwrist 35.444
rhand -19.4876 -26.8795
rfingers 7.12502
rthumb 6.83443 -56.7491
lclavicle -8.00108e-015 5.96354e-015
lhumerus -23.7025 7.64281 85.9925
lradius 14.1446
lwrist -2.24914
lhand -25.8544 -5.00108
lfingers 7.12502
lthumb 0.686372 24.9776
rfemur -10.6798 -3.35715 20.2304
rtibia 18.9607
rfoot -14.4979 -3.69897
rtoes 13.8557
lfemur -9.78335 8.37743 -19.4528
ltibia 16.5791
lfoot -11.8818 3.7126
ltoes -0.06631
27
root 0.53618 17.6149 -13.508 7.36699 -0.754776 -0.976716
lowerback -4.0966 -0.515435 -0.38481
upperback 1.39368 -0.723739 1.59472
thorax 3.7598 -0.388916 1.80769
lowerneck -13.0579 0.48237 -1.56368
upperneck 13.5089 0.95363 0.0540354
head 6.24116 0.384732 0.359539
rclavicle -6.95746e-016 -1.86858e-014
rhumerus -28.5011 -21.0076 -77.0876
rradius 22.3154
rwrist 35.4758
rhand -19.4766 -26.8914
rfingers 7.12502
rthumb 6.84509 -56.7607
lclavicle -6.95746e-016 -1.86858e-014
lhumerus -23.6918 7.61873 85.9992
lradius 14.1565
lwrist -2.21595
lhand -25.8661 -5.0059
lfingers 7.12502
lthumb 0.675026 24.9728
rfemur -10.676 -3.33078 20.2105
rtibia 18.942
rfoot -14.4989 -3.71666
rtoes 13.8472
lfemur -9.81129 8.44848 -19.4898
ltibia 16.6168
lfoot -11.857 3.73346
ltoes 0.0404863
28
root 0.53527 17.6159 -13.5064 7.3798 -0.776098 -0.952856
lowerback -4.10232 -0.511582 -0.401486
upperback 1.38677 -0.717163 1.5824
thorax 3.75569 -0.385824 1.80479
lowerneck -13.0465 0.482002 -1.56926
upperneck 13.4791 0.953453 0.0563236
head 6.2297 0.384769 0.361016
rclavicle -4.47266e-015 6.75868e-015
rhumerus -28.5003 -21.0199 -77.0838
rradius 22.3127
rwrist 35.5027
rhand -19.4709 -26.9004
rfingers 7.12502
rthumb 6.85058 -56.7696
lclavicle -4.47266e-015 6.75868e-015
lhumerus -23.6846 7.58269 86.009
lradius 14.1736
lwrist -2.17049
lhand -25.8723 -5.00534
lfingers 7.12502
lthumb 0.669092 24.9734
rfemur -10.6779 -3.30564 20.1873
rtibia 18.9272
rfoot -14.5 -3.73389
rtoes 13.8399
lfemur -9.84458 8.52936 -19.5325
ltibia 16.6541
lfoot -11.8339 3.74735
ltoes 0.171611
29
root 0.534433 17.6169 -13.5052 7.39493 -0.795271 -0.928203
lowerback -4.10784 -0.508952 -0.417703
upperback 1.37939 -0.712247 1.5703
thorax 3.75103 -0.383544 1.80174
lowerneck -13.0409 0.482449 -1.5732
upperneck 13.4516 0.954472 0.0567931
head 6.21997 0.385299 0.361783
rclavicle -7.30534e-015 5.56597e-015
rhumerus -28.4951 -21.0231 -77.0861
rradius 22.3115
rwrist 35.5117
rhand -19.4636 -26.9169
rfingers 7.12502
rthumb 6.85761 -56.7858
lclavicle -7.30534e-015 5.56597e-015
lhumerus -23.6793 7.53846 86.0216
lradius 14.1969
lwrist -2.11898
lhand -25.8728 -4.99155
lfingers 7.12502
lthumb 0.668599 24.9871
rfemur -10.686 -3.28373 20.1632
rtibia 18.9166
rfoot -14.5009 -3.7504
rtoes 13.8261
lfemur -9.8832 8.62284 -19.5801
ltibia 16.6908
lfoot -11.8119 3.75864
ltoes 0.32209
30
root 0.533679 17.6178 -13.5042 7.41169 -0.814963 -0.903137
lowerback -4.11259 -0.507499 -0.434091
upperback 1.37155 -0.708921 1.5592
thorax 3.74553 -0.382064 1.79971
lowerneck -13.0405 0.484054 -1.577
upperneck 13.4248 0.957514 0.054866
head 6.21134 0.386609 0.36197
rclavicle -8.44835e-015 -4.37326e-015
rhumerus -28.4885 -21.0102 -77.0944
rradius 22.3143
rwrist 35.5007
rhand -19.4746 -26.9141
rfingers 7.12502
rthumb 6.84697 -56.7833
lclavicle -8.44835e-015 -4.37326e-015
lhumerus -23.6753 7.48294 86.039
lradius 14.2246
lwrist -2.05413
lhand -25.8663 -4.97647
lfingers 7.12502
lthumb 0.674901 25.0022
rfemur -10.6998 -3.26288 20.1382
rtibia 18.9108
rfoot -14.5012 -3.76477
rtoes 13.8122
lfemur -9.92565 8.7318 -19.6335
ltibia 16.7259
lfoot -11.7894 3.77516
ltoes 0.483271
31
root 0.533008 17.6185 -13.5036 7.42908 -0.830476 -0.880962
lowerback -4.11486 -0.507788 -0.446369
upperback 1.36419 -0.708197 1.54955
thorax 3.73919 -0.381798 1.79669
lowerneck -13.046 0.486605 -1.58019
upperneck 13.3967 0.962028 0.0516301
head 6.20332 0.38856 0.361792
rclavicle 1.0635e-014 -1.90833e-014
rhumerus -28.4769 -20.99 -77.1072
rradius 22.3165
rwrist 35.4779
rhand -19.4833 -26.9099
rfingers 7.12502
rthumb 6.83863 -56.7794
lclavicle 1.0635e-014 -1.90833e-014
lhumerus -23.6705 7.41419 86.0614
lradius 14.2574
lwrist -1.97552
lhand -25.8579 -4.9657
lfingers 7.12502
lthumb 0.683015 25.0129
rfemur -10.7174 -3.24531 20.1165
rtibia 18.9088
rfoot -14.501 -3.77775
rtoes 13.8024
lfemur -9.97081 8.84883 -19.6891
ltibia 16.7585
lfoot -11.7649 3.80503
ltoes 0.64017
32
root 0.532482 17.619 -13.5033 7.44436 -0.842011 -0.862371
lowerback -4.11173 -0.509286 -0.452578
upperback 1.35607 -0.709442 1.5411
thorax 3.72901 -0.382359 1.79139
lowerneck -13.0529 0.489057 -1.58758
upperneck 13.3689 0.966788 0.0513787
head 6.19559 0.390657 0.363276
rclavicle -5.46658e-015 6.36111e-015
rhumerus -28.4683 -20.9518 -77.1265
rradius 22.3257
rwrist 35.4367
rhand -19.4902 -26.9082
rfingers 7.12502
rthumb 6.83194 -56.7779
lclavicle -5.46658e-015 6.36111e-015
lhumerus -23.6697 7.33091 86.0888
lradius 14.2978
lwrist -1.88206
lhand -25.8463 -4.94251
lfingers 7.12502
lthumb 0.69419 25.0361
rfemur -10.7353 -3.23497 20.0983
rtibia 18.911
rfoot -14.5013 -3.78709
rtoes 13.7881
lfemur -10.0116 8.96066 -19.745
ltibia 16.7853
lfoot -11.7388 3.86017
ltoes 0.786095
33
root 0.532079 17.6194 -13.5032 7.45665 -0.851099 -0.851034
lowerback -4.10475 -0.511231 -0.450021
upperback 1.35004 -0.711873 1.53518
thorax 3.7188 -0.383349 1.78371
lowerneck -13.0622 0.491898 -1.59437
upperneck 13.338 0.972392 0.0485212
head 6.18728 0.393003 0.363907
rclavicle 2.5842e-015 2.38542e-015
rhumerus -28.4565 -20.9067 -77.1494
rradius 22.3358
rwrist 35.3908
rhand -19.4913 -26.9117
rfingers 7.12502
rthumb 6.83087 -56.7815
lclavicle 2.5842e-015 2.38542e-015
lhumerus -23.6653 7.23691 86.1207
lradius 14.3367
lwrist -1.78081
lhand -25.8379 -4.91988
lfingers 7.12502
lthumb 0.702303 25.0587
rfemur -10.752 -3.22832 20.0878
rtibia 18.9156
rfoot -14.5019 -3.79388
rtoes 13.7754
lfemur -10.0452 9.05532 -19.7949
ltibia 16.805
lfoot -11.7111 3.94519
ltoes 0.914365
34
root 0.531813 17.6196 -13.5034 7.46586 -0.856978 -0.843186
lowerback -4.09421 -0.51407 -0.442256
upperback 1.34497 -0.71583 1.53055
thorax 3.70757 -0.384994 1.77435
lowerneck -13.0703 0.494719 -1.60177
upperneck 13.3037 0.978156 0.0449324
head 6.17771 0.395364 0.364403
rclavicle 5.86415e-015 -2.46493e-014
rhumerus -28.4434 -20.859 -77.1733
rradius 22.3435
rwrist 35.3489
rhand -19.4897 -26.9103
rfingers 7.12502
rthumb 6.83247 -56.7801
lclavicle 5.86415e-015 -2.46493e-014
lhumerus -23.6611 7.12971 86.1573
lradius 14.379
lwrist -1.66611
lhand -25.8269 -4.87786
lfingers 7.12502
lthumb 0.712925 25.1007
rfemur -10.7668 -3.22774 20.0805
rtibia 18.9222
rfoot -14.5044 -3.79589
rtoes 13.7724
lfemur -10.0687 9.12179 -19.8405
ltibia 16.8153
lfoot -11.6835 4.05654
ltoes 1.03105
35
root 0.531673 17.6196 -13.5037 7.47163 -0.85891 -0.844414
lowerback -4.08049 -0.517797 -0.424395
upperback 1.34126 -0.721651 1.52924
thorax 3.69592 -0.387381 1.76263
lowerneck -13.0799 0.497479 -1.60648
upperneck 13.2699 0.984183 0.0359813
head 6.1686 0.397551 0.362787
rclavicle 1.3418e-015 -2.78299e-015
rhumerus -28.4295 -20.8062 -77.1981
rradius 22.3507
rwrist 35.3106
rhand -19.4856 -26.9055
rfingers 7.12502
rthumb 6.83641 -56.7751
lclavicle 1.3418e-015 -2.78299e-015
lhumerus -23.6567 7.03039 86.1922
lradius 14.4188
lwrist -1.56453
lhand -25.8112 -4.81998
lfingers 7.12502
lthumb 0.728122 25.1585
rfemur -10.778 -3.23102 20.0828
rtibia 18.9292
rfoot -14.5082 -3.79671
rtoes 13.7719
lfemur -10.0809 9.15054 -19.8718
ltibia 16.8167
lfoot -11.656 4.1862
ltoes 1.12734
36
root 0.531563 17.6195 -13.5043 7.4755 -0.855882 -0.849003
lowerback -4.06433 -0.523658 -0.404453
upperback 1.33819 -0.73052 1.53061
thorax 3.68368 -0.391273 1.75231
lowerneck -13.0878 0.500729 -1.60912
upperneck 13.2337 0.991137 0.0223907
head 6.15846 0.399939 0.359423
rclavicle -3.8266e-015 -1.15295e-014
rhumerus -28.4129 -20.7486 -77.2236
rradius 22.3561
rwrist 35.2747
rhand -19.4839 -26.8981
rfingers 7.12502
rthumb 6.83802 -56.7676
lclavicle -3.8266e-015 -1.15295e-014
lhumerus -23.6532 6.93567 86.227
lradius 14.4562
lwrist -1.47137
lhand -25.798 -4.77944
lfingers 7.12502
lthumb 0.740811 25.199
rfemur -10.7875 -3.23786 20.089
rtibia 18.9366
rfoot -14.5124 -3.79651
rtoes 13.7801
lfemur -10.0845 9.14819 -19.8929
ltibia 16.809
lfoot -11.6318 4.31303
ltoes 1.21363
37
root 0.531406 17.6193 -13.505 7.47838 -0.846742 -0.859139
lowerback -4.04699 -0.530671 -0.381541
upperback 1.33499 -0.741196 1.53544
thorax 3.6707 -0.396037 1.74377
lowerneck -13.0948 0.503553 -1.60734
upperneck 13.1991 0.997631 0.00238836
head 6.14874 0.401801 0.353262
rclavicle -2.48481e-016 -1.39149e-014
rhumerus -28.3953 -20.6947 -77.2453
rradius 22.3583
rwrist 35.2498
rhand -19.479 -26.895
rfingers 7.12502
rthumb 6.84276 -56.7644
lclavicle -2.48481e-016 -1.39149e-014
lhumerus -23.651 6.85328 86.2597
lradius 14.4895
lwrist -1.39917
lhand -25.7913 -4.76127
lfingers 7.12502
lthumb 0.747303 25.2172
rfemur -10.7945 -3.249 20.1018
rtibia 18.9422
rfoot -14.5166 -3.79594
rtoes 13.7919
lfemur -10.084 9.1258 -19.9
ltibia 16.796
lfoot -11.6121 4.41771
ltoes 1.27974
